<?xml version="1.0" encoding="UTF-8" standalone="no"?>
<!-- Created with Inkscape (http://www.inkscape.org/) -->

<svg
   xmlns:dc="http://purl.org/dc/elements/1.1/"
   xmlns:cc="http://creativecommons.org/ns#"
   xmlns:rdf="http://www.w3.org/1999/02/22-rdf-syntax-ns#"
   xmlns:svg="http://www.w3.org/2000/svg"
   xmlns="http://www.w3.org/2000/svg"
   xmlns:sodipodi="http://sodipodi.sourceforge.net/DTD/sodipodi-0.dtd"
   xmlns:inkscape="http://www.inkscape.org/namespaces/inkscape"
   version="1.1"
   width="744.09448"
   height="352.3622"
   id="svg3003"
   inkscape:version="0.48.5 r10040"
   sodipodi:docname="office.svg">
  <sodipodi:namedview
     pagecolor="#ffffff"
     bordercolor="#666666"
     borderopacity="1"
     objecttolerance="10"
     gridtolerance="10"
     guidetolerance="10"
     inkscape:pageopacity="0"
     inkscape:pageshadow="2"
     inkscape:window-width="821"
     inkscape:window-height="584"
     id="namedview21"
     showgrid="false"
     inkscape:zoom="0.44080424"
     inkscape:cx="372.04724"
     inkscape:cy="195.92254"
     inkscape:window-x="0"
     inkscape:window-y="0"
     inkscape:window-maximized="0"
     inkscape:current-layer="svg3003" />
  <defs
     id="defs3005" />
  <metadata
     id="metadata3008">
    <rdf:RDF>
      <cc:Work
         rdf:about="">
        <dc:format>image/svg+xml</dc:format>
        <dc:type
           rdf:resource="http://purl.org/dc/dcmitype/StillImage" />
        <dc:title />
      </cc:Work>
    </rdf:RDF>
  </metadata>
  <g
     id="layer1" />
  <g
     id="layer2"
     transform="translate(-4.5371615,-524.04215)">
    <g
       transform="matrix(0.59366441,0,0,0.59366441,206.07019,373.33537)"
       id="g3119">
      <path
         d="m -32.324881,551.64789 181.827461,0 0,149.1812 -181.827461,0 z"
         id="path3087"
         style="fill:#800080;stroke:#000000;stroke-width:1px;stroke-linecap:butt;stroke-linejoin:miter;stroke-opacity:1"
         inkscape:connector-curvature="0" />
      <path
         d="m 149.50258,551.64789 c 0,0 0,149.1812 0,149.1812 l 181.92599,0 0,-149.1812 z"
         id="path3089"
         style="fill:#550000;stroke:#000000;stroke-width:1px;stroke-linecap:butt;stroke-linejoin:miter;stroke-opacity:1"
         inkscape:connector-curvature="0" />
      <path
         d="m 507.14286,700.82909 0,-149.1812 -175.71429,0 0,149.1812 z"
         id="path3091"
         style="fill:#999999;stroke:#000000;stroke-width:1px;stroke-linecap:butt;stroke-linejoin:miter;stroke-opacity:1"
         inkscape:connector-curvature="0" />
      <path
         d="m 507.14286,551.64789 0,149.1812 194.28571,0 0,-116.6812 -40,-32.5 z"
         id="path3093"
         style="fill:#b3b3b3;stroke:#000000;stroke-width:1px;stroke-linecap:butt;stroke-linejoin:miter;stroke-opacity:1"
         inkscape:connector-curvature="0" />
      <path
         d="m 727.14286,409.50504 129.4665,0 0,123.92857 -91.60936,0 -37.85714,-31.07143 z"
         id="path3095"
         style="fill:#800000;stroke:#000000;stroke-width:1px;stroke-linecap:butt;stroke-linejoin:miter;stroke-opacity:1"
         inkscape:connector-curvature="0" />
      <path
         d="m 856.60936,533.43361 -91.60936,0 -37.85714,-31.42857 0,-17.34859 -759.467741,0 0,66.99144 693.753451,0 40,32.5 0,116.6812 0,60.60916 155.18079,0 z"
         id="path3109"
         style="fill:#ffff00;stroke:#000000;stroke-width:1px;stroke-linecap:butt;stroke-linejoin:miter;stroke-opacity:1"
         inkscape:connector-curvature="0" />
      <path
         d="m 543.46207,339.19448 103.03556,0 0,70.31056 80.64523,0 0,75.15141 -183.68079,0 z"
         id="path3075"
         style="fill:#0000ff;stroke:#000000;stroke-width:1px;stroke-linecap:butt;stroke-linejoin:miter;stroke-opacity:1"
         inkscape:connector-curvature="0" />
      <path
         d="m 365.67522,339.19448 177.78685,0 0,145.46197 -177.78685,0 z"
         id="path3077"
         style="fill:#000080;stroke:#000000;stroke-width:1px;stroke-linecap:butt;stroke-linejoin:miter;stroke-opacity:1"
         inkscape:connector-curvature="0" />
      <path
         d="m 164.28571,339.19448 201.38951,0 0,145.46197 -201.38951,0 z"
         id="path3079"
         style="fill:#008080;stroke:#000000;stroke-width:1px;stroke-linecap:butt;stroke-linejoin:miter;stroke-opacity:1"
         inkscape:connector-curvature="0" />
      <path
         d="m -32.324881,339.19448 196.610591,0 0,145.46197 -196.610591,0 z"
         id="path3083"
         style="fill:#008000;stroke:#000000;stroke-width:1px;stroke-linecap:butt;stroke-linejoin:miter;stroke-opacity:1"
         inkscape:connector-curvature="0" />
      <path
         d="m -149.50258,339.19448 117.177699,0 0,145.46197 -117.177699,0 z"
         id="path3085"
         style="fill:#808000;stroke:#000000;stroke-width:1px;stroke-linecap:butt;stroke-linejoin:miter;stroke-opacity:1"
         inkscape:connector-curvature="0" />
      <path
         d="m -248.57143,339.19448 99.06885,0 0,145.46197 117.177699,0 0,80.92001 -216.246549,0 z"
         id="path3099"
         style="fill:#ff0000;stroke:#000000;stroke-width:1px;stroke-linecap:butt;stroke-linejoin:miter;stroke-opacity:1"
         inkscape:connector-curvature="0" />
      <path
         d="m -248.57143,565.57646 0,135.25263 216.246549,0 0,-135.25263 z"
         id="path3101"
         style="fill:#800000;stroke:#000000;stroke-width:1px;stroke-linecap:butt;stroke-linejoin:miter;stroke-opacity:1"
         inkscape:connector-curvature="0" />
    </g>
  </g>
</svg>
